:version 1.10
:name ASF
:units
  mass 1
  length 1
  angle deg
:documentation
  ASF file generated by Kaydara
:root
  axis xyz
  order  tx ty tz rx ry rz
  position 0 0 0
  orientation 0 0 0
:bonedata
  begin
    id 1
    name LeftUpLegDummy
    direction 1 -2.30186e-007 -8.31532e-007
    length 2.93387
    axis 0 0 0 xyz
  end
  begin
    id 2
    name LeftUpLeg
    direction -1.82929e-007 -1 -1.48925e-009
    length 17.3336
    axis -3.48766 0.00143442 -0.000521554 xyz
    dof rx ry rz
  end
  begin
    id 3
    name LeftLeg
    direction -1.82929e-007 -1 -5.23717e-011
    length 14.9995
    axis 3.68178 -0.00654042 -0.000282425 xyz
    dof rx ry rz
  end
  begin
    id 4
    name LeftFoot
    direction 8.31532e-007 -4.54534e-011 1
    length 6.74421
    axis 1.87234e-006 4.66016e-005 -5.96866e-006 xyz
    dof rx ry rz
  end
  begin
    id 5
    name LeftToes
    direction 0.00818058 -0.00485161 0.999955
    length 3.85048
    axis 1.06247e-005 4.65869e-005 -5.96999e-006 xyz
    dof rx ry rz
  end
  begin
    id 6
    name SpineDummy
    direction -5.8607e-008 0.943407 -0.331637
    length 5.93572
    axis 0 0 0 xyz
  end
  begin
    id 7
    name Spine
    direction -1.04988e-007 0.999988 0.00495137
    length 10.1015
    axis -0.001389 0.000121417 6.61666e-006 xyz
    dof rx ry rz
  end
  begin
    id 8
    name Spine1
    direction 0 0 0
    length 0
    axis -0.001389 0.00012144 6.56766e-006 xyz
    dof rx ry rz
  end
  begin
    id 9
    name RightShoulderDummy
    direction -0.98348 0.17941 -0.0240696
    length 3.59882
    axis -0.001389 0.00012144 6.56766e-006 xyz
  end
  begin
    id 10
    name RightShoulder
    direction -0.978693 0.204882 0.0135597
    length 2.70001
    axis 0.215806 0.000203631 -0.00679732 xyz
    dof rx ry rz
  end
  begin
    id 11
    name RightArm
    direction -1 3.85509e-006 8.31394e-007
    length 10.2459
    axis -23.2009 -0.134239 -0.964098 xyz
    dof rx ry rz
  end
  begin
    id 12
    name RightForeArm
    direction -1 3.85569e-006 8.3129e-007
    length 8.16799
    axis -9.92322 0.0658061 0.17887 xyz
    dof rx ry rz
  end
  begin
    id 13
    name RightHand
    direction -0.992843 -0.0414604 0.112003
    length 5.28593
    axis -0.00960638 0.00330669 -0.185225 xyz
    dof rx ry rz
  end
  begin
    id 14
    name LeftShoulder1Dummy
    direction 0.983523 0.179172 -0.0240748
    length 3.59866
    axis -0.001389 0.00012144 6.56766e-006 xyz
  end
  begin
    id 15
    name LeftShoulder1
    direction 0.978627 0.205195 0.0135605
    length 2.70019
    axis -0.001389 0.00012144 6.57583e-006 xyz
    dof rx ry rz
  end
  begin
    id 16
    name LeftArm
    direction 1 3.51895e-006 -8.60188e-007
    length 10.2459
    axis -23.1894 0.134785 0.967513 xyz
    dof rx ry rz
  end
  begin
    id 17
    name LeftForeArm
    direction 1 3.51921e-006 -7.32029e-007
    length 8.16799
    axis -9.91835 -0.0656957 -0.177789 xyz
    dof rx ry rz
  end
  begin
    id 18
    name LeftHand
    direction 0.992938 -0.0411636 0.11126
    length 5.32135
    axis -0.00960237 -0.00340661 0.185177 xyz
    dof rx ry rz
  end
  begin
    id 19
    name HEadDummy
    direction 1.01974e-006 0.999861 -0.016675
    length 2.99946
    axis -0.001389 0.00012144 6.56766e-006 xyz
  end
  begin
    id 20
    name HEad
    direction -0.0222689 0.980941 0.193023
    length 5.12695
    axis -0.001389 0.00012144 6.56766e-006 xyz
    dof rx ry rz
  end
  begin
    id 21
    name RightUpLegDummy
    direction -1 2.30186e-007 8.31532e-007
    length 2.93387
    axis 0 0 0 xyz
  end
  begin
    id 22
    name RightUpLeg
    direction -1.82966e-007 -1 1.56832e-007
    length 17.3336
    axis -3.4909 -0.000906625 0.00028951 xyz
    dof rx ry rz
  end
  begin
    id 23
    name RightLeg
    direction -1.82786e-007 -1 -1.80317e-007
    length 14.9995
    axis 3.68513 0.0193739 -0.131021 xyz
    dof rx ry rz
  end
  begin
    id 24
    name RightFoot
    direction 8.31721e-007 -4.63324e-011 1
    length 6.74421
    axis 4.81691e-005 -0.120479 -0.188785 xyz
    dof rx ry rz
  end
  begin
    id 25
    name RightToes
    direction 0.00124746 -0.014064 0.9999
    length 3.85082
    axis 0.000481921 0.542163 -0.142575 xyz
    dof rx ry rz
  end
:hierarchy
  begin
    root LeftUpLegDummy SpineDummy RightUpLegDummy
    LeftUpLegDummy LeftUpLeg
    LeftUpLeg LeftLeg
    LeftLeg LeftFoot
    LeftFoot LeftToes
    SpineDummy Spine
    Spine Spine1
    Spine1 RightShoulderDummy LeftShoulder1Dummy HEadDummy
    RightShoulderDummy RightShoulder
    RightShoulder RightArm
    RightArm RightForeArm
    RightForeArm RightHand
    LeftShoulder1Dummy LeftShoulder1
    LeftShoulder1 LeftArm
    LeftArm LeftForeArm
    LeftForeArm LeftHand
    HEadDummy HEad
    RightUpLegDummy RightUpLeg
    RightUpLeg RightLeg
    RightLeg RightFoot
    RightFoot RightToes
  end

:SAMPLES-PER-SECOND 30
:FULLY-SPECIFIED
:DEGREES
230
root  -0.963253 34.0187 -3.46076 3.1884 44.2259 -0.544706
LeftUpLeg  -14.9092 5.46702 11.6037
LeftLeg  23.8079 8.46707 3.08579
LeftFoot  7.44747 -0.0750221 1.15267
LeftToes  -26.6766 8.556e-007 1.17171e-007
Spine  2.63867 0.517487 2.65284
Spine1  5.08768 0.93497 5.27237
RightShoulder  0.0552555 6.0009 5.56183
RightArm  -26.4946 -9.70398 68.9526
RightForeArm  26.7275 20.2032 3.71518
RightHand  0.979654 -12.4039 -8.62224
LeftShoulder1  0.0196011 -1.00316 -7.88879
LeftArm  -6.92846 5.60273 -74.3393
LeftForeArm  25.123 -34.433 -6.9394
LeftHand  0.103705 3.15837 3.38294
HEad  -31.5279 9.48797 -6.76486
RightUpLeg  -6.54184 -15.8975 3.84269
RightLeg  11.0035 6.71577 0.862678
RightFoot  -1.8493 -0.00942607 -0.20656
RightToes  -25.0875 -0.111597 -0.216415
231
root  -0.804172 34.0309 -3.51541 3.34557 43.7741 -0.473054
LeftUpLeg  -14.8269 3.36033 12.2443
LeftLeg  20.6916 6.16413 1.87897
LeftFoot  8.08971 -0.0626837 0.886419
LeftToes  -27.4874 8.556e-007 1.17171e-007
Spine  2.6521 0.600275 2.77108
Spine1  5.12422 1.11287 5.48991
RightShoulder  0.0588586 6.03536 5.57874
RightArm  -26.7113 -9.68594 68.6532
RightForeArm  26.8568 19.5586 3.58647
RightHand  0.9892 -12.3896 -8.71995
LeftShoulder1  0.0194312 -0.904568 -8.03762
LeftArm  -6.61542 5.9127 -74.6216
LeftForeArm  25.2017 -34.7289 -7.01717
LeftHand  0.103841 3.08903 3.47199
HEad  -31.5664 9.20684 -6.72071
RightUpLeg  -6.38556 -15.463 3.53233
RightLeg  10.6608 6.70025 0.820109
RightFoot  -1.6293 -0.00791551 -0.179197
RightToes  -25.6648 -0.115236 -0.220735
232
root  -0.621546 34.0508 -3.57231 3.55741 43.1526 -0.416436
LeftUpLeg  -14.5807 1.29555 12.8307
LeftLeg  17.1628 3.76091 0.89887
LeftFoot  9.11871 -0.0471085 0.590731
LeftToes  -27.6049 8.556e-007 1.17171e-007
Spine  2.6384 0.677017 2.87736
Spine1  5.11587 1.28527 5.67471
RightShoulder  0.0624023 6.12965 5.60773
RightArm  -26.8936 -9.92031 68.2298
RightForeArm  27.1003 19.0203 3.47975
RightHand  0.996018 -12.4382 -8.74649
LeftShoulder1  0.0189713 -0.825248 -8.07376
LeftArm  -6.70431 6.59676 -74.9826
LeftForeArm  25.136 -34.3665 -6.92201
LeftHand  0.10255 3.08783 3.43158
HEad  -31.5839 9.01625 -6.65221
RightUpLeg  -6.27534 -14.8086 3.20676
RightLeg  10.2953 6.66535 0.77287
RightFoot  -1.31698 -0.00878953 -0.141511
RightToes  -26.2984 -0.119088 -0.225434
233
root  -0.424964 34.0558 -3.64201 3.70982 42.4303 -0.473487
LeftUpLeg  -14.3383 -0.54313 13.3804
LeftLeg  13.9358 0.0625068 0.00968712
LeftFoot  11.1238 0.000868128 -0.00892393
LeftToes  -29.1835 8.556e-007 1.17171e-007
Spine  2.60981 0.721085 2.99901
Spine1  5.08356 1.39554 5.88088
RightShoulder  0.066333 6.19127 5.64167
RightArm  -27.2452 -10.1828 67.72
RightForeArm  27.5789 18.3093 3.33983
RightHand  0.999675 -12.5064 -8.72977
LeftShoulder1  0.0181795 -0.843248 -8.00335
LeftArm  -7.20803 7.57858 -75.3767
LeftForeArm  25.1126 -33.4237 -6.67834
LeftHand  0.100852 3.17912 3.25603
HEad  -31.5276 8.98508 -6.4861
RightUpLeg  -6.27279 -14.3467 2.93197
RightLeg  10.12 6.85796 0.773899
RightFoot  -1.16676 -0.00852912 -0.1279
RightToes  -26.8946 -0.123132 -0.229814
234
root  -0.183874 34.0485 -3.69286 3.70395 41.4185 -0.627888
LeftUpLeg  -14.1006 -1.58359 13.7594
LeftLeg  12.1243 -4.48512 -0.666399
LeftFoot  13.0735 0.120018 -1.04739
LeftToes  -30.884 8.556e-007 1.17171e-007
Spine  2.62097 0.800202 3.13179
Spine1  5.13309 1.57231 6.10748
RightShoulder  0.0714177 6.28016 5.69948
RightArm  -27.8689 -10.5752 67.0927
RightForeArm  28.0547 17.6039 3.20217
RightHand  1.01646 -12.6015 -8.81186
LeftShoulder1  0.0170137 -0.960935 -7.97978
LeftArm  -7.76434 8.73323 -75.6113
LeftForeArm  25.0573 -31.9673 -6.31245
LeftHand  0.100897 3.47957 2.94503
HEad  -31.2673 8.97917 -6.15877
RightUpLeg  -6.16259 -14.0393 2.62919
RightLeg  10.0684 7.52886 0.842307
RightFoot  -1.14444 -0.00704929 -0.138998
RightToes  -27.5675 -0.127534 -0.234709
235
root  0.0803115 34.0264 -3.73616 3.64638 40.3525 -0.804941
LeftUpLeg  -14.0151 -2.1331 13.9205
LeftLeg  12.3496 -5.97208 -0.910121
LeftFoot  12.1244 0.137574 -1.29536
LeftToes  -32.0957 8.556e-007 1.17171e-007
Spine  2.62754 0.823807 3.25376
Spine1  5.16148 1.64358 6.2937
RightShoulder  0.0820921 6.37241 5.8603
RightArm  -28.5019 -11.0278 66.3352
RightForeArm  28.3634 16.8789 3.06193
RightHand  1.03946 -12.6945 -8.94978
LeftShoulder1  0.0141086 -1.04383 -7.89111
LeftArm  -8.30369 9.94387 -75.7821
LeftForeArm  25.105 -29.8299 -5.79661
LeftHand  0.104308 3.77678 2.7878
HEad  -30.7601 8.92192 -5.56593
RightUpLeg  -6.08609 -13.7292 2.30094
RightLeg  10.2236 8.2493 0.944884
RightFoot  -1.25093 -0.00465951 -0.169312
RightToes  -28.4594 -0.133457 -0.241117
236
root  0.371708 34.0007 -3.75472 3.43122 39.142 -1.26822
LeftUpLeg  -13.5675 -1.77035 14.0244
LeftLeg  13.0113 -5.36814 -0.882057
LeftFoot  10.0978 0.0868034 -0.982494
LeftToes  -32.3278 8.556e-007 1.17171e-007
Spine  2.59857 0.816538 3.43323
Spine1  5.12461 1.6411 6.60227
RightShoulder  0.0903386 6.53355 6.19225
RightArm  -29.4337 -11.6218 65.2959
RightForeArm  28.8385 16.2165 2.93469
RightHand  1.0483 -12.6999 -9.02459
LeftShoulder1  0.0103518 -1.17774 -7.90342
LeftArm  -9.29947 11.3803 -75.8812
LeftForeArm  25.6219 -27.5207 -5.26423
LeftHand  0.100956 4.1979 2.38017
HEad  -29.9969 8.83652 -4.81945
RightUpLeg  -5.90223 -13.1652 2.1789
RightLeg  10.2048 8.87373 1.01292
RightFoot  -1.29816 -0.00297828 -0.193025
RightToes  -29.1397 -0.138042 -0.245942
